HIERARCHY
ROOT joint_Root
{
	OFFSET 0.0 0.0 0.0
	CHANNELS 6 Xposition Yposition Zposition Zrotation Xrotation Yrotation 
	JOINT Hips
	{
		OFFSET -0.726466 93.3139 -2.00062
		CHANNELS 6 Xposition Yposition Zposition Zrotation Xrotation Yrotation 
		JOINT Spine
		{
			OFFSET 15.7357 0.0 0.0
			CHANNELS 6 Xposition Yposition Zposition Zrotation Xrotation Yrotation 
			JOINT Chest
			{
				OFFSET 8.98455 -0.406207 0.0
				CHANNELS 6 Xposition Yposition Zposition Zrotation Xrotation Yrotation 
				JOINT Neck
				{
					OFFSET 16.3773 0.0 0.0
					CHANNELS 6 Xposition Yposition Zposition Zrotation Xrotation Yrotation 
					JOINT Head
					{
						OFFSET 6.45672 0.0 0.0
						CHANNELS 6 Xposition Yposition Zposition Zrotation Xrotation Yrotation 
						End Site
						{
							OFFSET 0.0 0.0 0.0
						}
					}
				}
				JOINT Shoulder_L
				{
					OFFSET 12.9942 -0.242716 4.98039
					CHANNELS 6 Xposition Yposition Zposition Zrotation Xrotation Yrotation 
					JOINT UpperArm_L
					{
						OFFSET 5.34809 0.0 0.0
						CHANNELS 6 Xposition Yposition Zposition Zrotation Xrotation Yrotation 
						JOINT LowerArm_L
						{
							OFFSET 24.3286 1.87007e-05 0.0
							CHANNELS 6 Xposition Yposition Zposition Zrotation Xrotation Yrotation 
							JOINT Hand_L
							{
								OFFSET 22.2916 0.0 0.0
								CHANNELS 6 Xposition Yposition Zposition Zrotation Xrotation Yrotation 
								End Site
								{
									OFFSET 0.0 0.0 0.0
								}
							}
						}
					}
				}
				JOINT Shoulder_R
				{
					OFFSET 12.9945 -0.242716 -4.98039
					CHANNELS 6 Xposition Yposition Zposition Zrotation Xrotation Yrotation 
					JOINT UpperArm_R
					{
						OFFSET -5.34813 0.0 0.0
						CHANNELS 6 Xposition Yposition Zposition Zrotation Xrotation Yrotation 
						JOINT LowerArm_R
						{
							OFFSET -24.3289 0.000322201 0.0
							CHANNELS 6 Xposition Yposition Zposition Zrotation Xrotation Yrotation 
							JOINT Hand_R
							{
								OFFSET -22.2915 -0.000108084 0.0
								CHANNELS 6 Xposition Yposition Zposition Zrotation Xrotation Yrotation 
								End Site
								{
									OFFSET 0.0 0.0 0.0
								}
							}
						}
					}
				}
			}
		}
		JOINT UpperLeg_L
		{
			OFFSET -2.19248 -6.46944 0.0
			CHANNELS 6 Xposition Yposition Zposition Zrotation Xrotation Yrotation 
			JOINT LowerLeg_L
			{
				OFFSET 39.0811 0.0 -1.23785e-05
				CHANNELS 6 Xposition Yposition Zposition Zrotation Xrotation Yrotation 
				JOINT Foot_L
				{
					OFFSET 40.9854 0.0 -1.26872e-05
					CHANNELS 6 Xposition Yposition Zposition Zrotation Xrotation Yrotation 
					JOINT Toes_L
					{
						OFFSET 11.7543 0.0 0.0
						CHANNELS 6 Xposition Yposition Zposition Zrotation Xrotation Yrotation 
						End Site
						{
							OFFSET 0.0 0.0 0.0
						}
					}
				}
			}
		}
		JOINT UpperLeg_R
		{
			OFFSET -2.19251 6.46944 0.0
			CHANNELS 6 Xposition Yposition Zposition Zrotation Xrotation Yrotation 
			JOINT LowerLeg_R
			{
				OFFSET -39.0811 -0.00228153 -0.0401928
				CHANNELS 6 Xposition Yposition Zposition Zrotation Xrotation Yrotation 
				JOINT Foot_R
				{
					OFFSET -40.9854 0.0 0.0
					CHANNELS 6 Xposition Yposition Zposition Zrotation Xrotation Yrotation 
					JOINT Toes_R
					{
						OFFSET -11.7543 0.0 0.0
						CHANNELS 6 Xposition Yposition Zposition Zrotation Xrotation Yrotation 
						End Site
						{
							OFFSET 0.0 0.0 0.0
						}
					}
				}
			}
		}
	}
}
MOTION
Frames:	7
Frame Time:	0.0333333
0.000000 0.000000 0.000000 0.000000 0.000000 -0.000000 -2.452320 92.305300 -1.492590 88.635500 1.029310 3.985470 15.735700 0.000005 -0.000001 79.905900 85.782700 -78.459300 8.984550 -0.406207 -0.000000 0.559885 -1.568760 2.898840 16.377300 -0.000001 -0.000001 3.896580 -2.188070 -1.719210 6.456720 -0.000001 -0.000000 5.423300 -2.937540 -1.265880 12.994200 -0.242716 4.980390 -87.633700 -6.425360 -69.732900 5.348090 -0.000007 -0.000001 -85.300700 -39.521200 -87.922100 24.328600 0.000019 0.000005 7.220260 -0.422159 -93.328700 22.291600 -0.000001 0.000005 20.523900 5.605660 -11.686700 12.994500 -0.242716 -4.980390 88.405600 5.144450 -72.754300 -5.348130 -0.000001 -0.000004 -64.253000 38.845900 -16.151700 -24.328900 0.000322 -0.000009 2.200280 7.674350 -16.058100 -22.291500 -0.000108 -0.000004 8.544900 5.425230 -3.775860 -2.192480 -6.469440 -0.000000 -175.008000 -5.074050 -2.842940 39.081100 -0.000007 -0.000012 -0.114579 0.280633 22.209700 40.985400 -0.000006 -0.000013 -1.105210 4.857280 -65.623500 11.754300 -0.000000 0.000003 -0.000029 -0.000347 -16.591100 -2.192510 6.469440 -0.000001 -179.447000 14.816600 -179.706000 -39.081100 -0.002282 -0.040193 -0.007278 0.030016 19.452200 -40.985400 0.000008 0.000006 5.386200 5.535620 -66.616000 -11.754300 -0.000006 -0.000006 -0.006197 -0.072616 -19.528600
0.000000 0.000000 0.000000 0.000000 0.000000 -0.000000 -2.429620 92.314800 -1.532180 88.631000 0.907970 3.929460 15.735700 0.000005 -0.000001 80.223200 85.778100 -78.793500 8.984550 -0.406207 -0.000000 0.576034 -1.523030 2.865220 16.377300 -0.000001 -0.000001 3.850590 -2.169930 -1.734010 6.456720 -0.000001 -0.000000 5.339410 -2.981140 -1.223340 12.994200 -0.242716 4.980390 -87.629100 -6.420620 -69.682700 5.348090 -0.000007 -0.000001 -84.979100 -39.742500 -87.519100 24.328600 0.000019 0.000005 7.029290 -0.445999 -93.612500 22.291600 -0.000001 0.000005 20.601800 5.605100 -11.651800 12.994500 -0.242716 -4.980390 88.398600 5.168590 -72.758800 -5.348130 -0.000001 -0.000004 -64.326600 38.929300 -16.093400 -24.328900 0.000322 -0.000009 2.216400 7.637490 -16.243200 -22.291500 -0.000108 -0.000004 8.406370 5.424910 -3.765120 -2.192480 -6.469440 -0.000000 -175.037000 -5.103340 -2.891330 39.081100 -0.000007 -0.000012 -0.112032 0.274923 22.171100 40.985400 -0.000006 -0.000013 -1.101540 4.770910 -65.587700 11.754300 -0.000000 0.000003 -0.000026 -0.000323 -16.590200 -2.192510 6.469440 -0.000001 -179.455000 14.781700 -179.779000 -39.081100 -0.002282 -0.040193 -0.009280 0.035774 19.406400 -40.985400 0.000008 0.000006 5.284620 5.660990 -66.542600 -11.754300 -0.000006 -0.000006 -0.005877 -0.069715 -19.410300
0.000000 0.000000 0.000000 0.000000 0.000000 -0.000000 -2.398900 92.321100 -1.574410 88.614300 0.804344 3.912470 15.735700 0.000005 -0.000001 80.507600 85.759700 -79.086800 8.984550 -0.406207 -0.000000 0.618732 -1.486700 2.847640 16.377300 -0.000001 -0.000001 3.794300 -2.135400 -1.762090 6.456720 -0.000001 -0.000000 5.248770 -2.958170 -1.194210 12.994200 -0.242716 4.980390 -87.635300 -6.387060 -69.634100 5.348090 -0.000007 -0.000001 -84.344200 -39.968100 -86.421600 24.328600 0.000019 0.000005 6.741470 -0.509823 -94.305300 22.291600 -0.000001 0.000005 20.678800 5.605220 -11.659600 12.994500 -0.242716 -4.980390 88.387800 5.204440 -72.762300 -5.348130 -0.000001 -0.000004 -64.362400 39.105000 -16.056900 -24.328900 0.000322 -0.000009 2.206220 7.560560 -16.327300 -22.291500 -0.000108 -0.000004 8.460820 5.425700 -3.792110 -2.192480 -6.469440 -0.000000 -175.047000 -5.107910 -2.917330 39.081100 -0.000007 -0.000012 -0.112389 0.275906 22.163300 40.985400 -0.000006 -0.000013 -1.104640 4.665630 -65.567200 11.754300 -0.000000 0.000003 -0.000029 -0.000352 -16.591300 -2.192510 6.469440 -0.000001 -179.438000 14.639200 -179.829000 -39.081100 -0.002282 -0.040193 -0.010065 0.038037 19.390200 -40.985400 0.000008 0.000006 5.250990 5.649000 -66.487900 -11.754300 -0.000006 -0.000006 -0.005988 -0.070730 -19.451700
0.000000 0.000000 0.000000 0.000000 0.000000 -0.000000 -2.367210 92.327800 -1.596640 88.638000 0.772128 3.879920 15.735700 0.000005 -0.000001 80.546600 85.739100 -79.149300 8.984550 -0.406207 -0.000000 0.660024 -1.485800 2.801120 16.377300 -0.000001 -0.000001 3.685150 -2.112090 -1.740550 6.456720 -0.000001 -0.000000 5.237660 -2.916940 -1.181740 12.994200 -0.242716 4.980390 -87.670300 -6.294870 -69.642800 5.348090 -0.000007 -0.000001 -82.872100 -40.233900 -84.129300 24.328600 0.000019 0.000005 5.958110 -0.576968 -95.513000 22.291600 -0.000001 0.000005 20.963100 5.604670 -11.625600 12.994500 -0.242716 -4.980390 88.361800 5.282520 -72.742700 -5.348130 -0.000001 -0.000004 -64.406500 39.175500 -16.038300 -24.328900 0.000322 -0.000009 2.186980 7.520980 -16.272600 -22.291500 -0.000108 -0.000004 8.444690 5.428140 -3.875140 -2.192480 -6.469440 -0.000000 -175.109000 -5.094550 -2.939560 39.081100 -0.000007 -0.000012 -0.109898 0.270376 22.120100 40.985400 -0.000006 -0.000013 -1.088730 4.606780 -65.535100 11.754300 -0.000000 0.000003 -0.000025 -0.000306 -16.589500 -2.192510 6.469440 -0.000001 -179.451000 14.512400 -179.889000 -39.081100 -0.002282 -0.040193 -0.010668 0.039746 19.391700 -40.985400 0.000008 0.000006 5.220390 5.558450 -66.453900 -11.754300 -0.000006 -0.000006 -0.005963 -0.070497 -19.442200
0.000000 0.000000 0.000000 0.000000 0.000000 -0.000000 -2.342330 92.335100 -1.625200 88.625200 0.749310 3.853390 15.735700 0.000005 -0.000001 80.865700 85.723200 -79.476600 8.984550 -0.406207 -0.000000 0.698473 -1.443050 2.784970 16.377300 -0.000001 -0.000001 3.596020 -2.133680 -1.687480 6.456720 -0.000001 -0.000000 5.189780 -2.948510 -1.190230 12.994200 -0.242716 4.980390 -87.742500 -6.110800 -69.679500 5.348090 -0.000007 -0.000001 -80.142500 -40.199400 -80.137100 24.328600 0.000019 0.000005 4.126470 -0.530861 -97.324200 22.291600 -0.000001 0.000005 21.153200 5.604380 -11.607600 12.994500 -0.242716 -4.980390 88.325400 5.367150 -72.642800 -5.348130 -0.000001 -0.000004 -64.561000 39.027400 -15.909400 -24.328900 0.000322 -0.000009 2.209880 7.601550 -16.270000 -22.291500 -0.000108 -0.000004 8.487690 5.424700 -3.757950 -2.192480 -6.469440 -0.000000 -175.103000 -5.178280 -2.976380 39.081100 -0.000007 -0.000012 -0.110936 0.273191 22.101000 40.985400 -0.000006 -0.000013 -1.066090 4.657990 -65.503400 11.754300 -0.000000 0.000003 -0.000027 -0.000329 -16.590400 -2.192510 6.469440 -0.000001 -179.408000 14.374000 -179.937000 -39.081100 -0.002282 -0.040193 -0.007697 0.031336 19.374500 -40.985400 0.000008 0.000006 5.306880 5.426380 -66.424200 -11.754300 -0.000006 -0.000006 -0.006094 -0.071691 -19.490900
0.000000 0.000000 0.000000 0.000000 0.000000 -0.000000 -2.300280 92.337800 -1.648700 88.629800 0.731828 3.789120 15.735700 0.000005 -0.000001 81.518800 85.721100 -80.137300 8.984550 -0.406207 -0.000000 0.716160 -1.346660 2.769470 16.377300 -0.000001 -0.000001 3.524330 -2.141960 -1.577300 6.456720 -0.000001 -0.000000 5.101880 -2.991860 -1.223520 12.994200 -0.242716 4.980390 -87.853800 -5.830610 -69.750800 5.348090 -0.000007 -0.000001 -75.853600 -39.411600 -74.078900 24.328600 0.000019 0.000005 1.637260 -0.278266 -99.665400 22.291600 -0.000001 0.000005 21.371200 5.605740 -11.691600 12.994500 -0.242716 -4.980390 88.282300 5.471390 -72.540600 -5.348130 -0.000001 -0.000004 -64.637000 38.965300 -15.746600 -24.328900 0.000322 -0.000009 2.217870 7.614290 -16.300000 -22.291500 -0.000108 -0.000004 8.562040 5.426090 -3.805250 -2.192480 -6.469440 -0.000000 -175.154000 -5.170670 -3.058810 39.081100 -0.000007 -0.000012 -0.109679 0.270000 22.108000 40.985400 -0.000006 -0.000013 -1.037730 4.617790 -65.495000 11.754300 -0.000000 0.000003 -0.000028 -0.000345 -16.591000 -2.192510 6.469440 -0.000001 -179.399000 14.235700 179.966000 -39.081100 -0.002282 -0.040193 -0.006777 0.028705 19.383800 -40.985400 0.000008 0.000006 5.231110 5.334920 -66.388700 -11.754300 -0.000006 -0.000006 -0.006207 -0.072707 -19.532300
0.000000 0.000000 0.000000 0.000000 0.000000 -0.000000 -2.259190 92.340100 -1.669470 88.623200 0.743757 3.789470 15.735700 0.000005 -0.000001 82.419600 85.690300 -81.056200 8.984550 -0.406207 -0.000000 0.794234 -1.219550 2.733150 16.377300 -0.000001 -0.000001 3.395680 -2.193780 -1.339290 6.456720 -0.000001 -0.000000 5.034320 -3.034680 -1.266990 12.994200 -0.242716 4.980390 -87.982100 -5.550970 -69.986500 5.348090 -0.000007 -0.000001 -69.907900 -37.514100 -65.943000 24.328600 0.000019 0.000005 -0.864793 0.190014 -102.346000 22.291600 -0.000001 0.000005 21.702900 5.609220 -11.909700 12.994500 -0.242716 -4.980390 88.223900 5.612590 -72.408600 -5.348130 -0.000001 -0.000004 -64.672900 38.965800 -15.585700 -24.328900 0.000322 -0.000009 2.220100 7.595770 -16.353000 -22.291500 -0.000108 -0.000004 8.583870 5.426900 -3.832950 -2.192480 -6.469440 -0.000000 -175.175000 -5.165980 -3.082220 39.081100 -0.000007 -0.000012 -0.109836 0.270206 22.121200 40.985400 -0.000006 -0.000013 -1.011850 4.613130 -65.487700 11.754300 -0.000000 0.000003 -0.000028 -0.000341 -16.590900 -2.192510 6.469440 -0.000001 -179.415000 14.238700 179.949000 -39.081100 -0.002282 -0.040193 -0.007829 0.031689 19.387700 -40.985400 0.000008 0.000006 5.221730 5.320610 -66.371200 -11.754300 -0.000006 -0.000006 -0.006008 -0.070908 -19.459000
